<svg data-v-fde0c5aa="" xmlns="http://www.w3.org/2000/svg" viewBox="0 0 300 300" class="font"><!----><defs data-v-fde0c5aa=""><!----></defs><rect data-v-fde0c5aa="" fill="#29C785" x="0" y="0" width="300px" height="300px" class="logo-background-square"></rect><defs data-v-fde0c5aa=""><!----></defs><g data-v-fde0c5aa="" id="be54321b-20d7-4274-8e1b-e4eb2a978386" fill="#245760" transform="matrix(7.060334227979472,0,0,7.060334227979472,30.327342074001827,95.63542442458024)"><path d="M7.49 12.88L8.66 12.88L3.64 7.21L8.49 2.38L7.33 2.38L2.91 6.81L2.21 6.81L2.21 2.38L1.37 2.38L1.37 12.88L2.21 12.88L2.21 7.61L2.92 7.61ZM12.67 5.74C11.92 5.74 11.24 6.07 10.76 6.63L10.76 5.88L9.94 5.88L9.94 12.88L10.76 12.88L10.76 8.38C10.76 7.37 11.59 6.54 12.60 6.54C13.62 6.54 14.44 7.37 14.44 8.38L14.44 12.88L15.24 12.88L15.24 8.38C15.24 6.91 14.04 5.74 12.67 5.74ZM21 13.02C23.01 13.02 24.64 11.39 24.64 9.38C24.64 7.37 23.01 5.74 21 5.74C18.99 5.74 17.36 7.37 17.36 9.38C17.36 11.39 18.99 13.02 21 13.02ZM21 12.20C19.43 12.20 18.17 10.96 18.17 9.38C18.17 7.81 19.43 6.56 21 6.56C22.56 6.56 23.82 7.81 23.82 9.38C23.82 10.96 22.56 12.20 21 12.20ZM32.53 5.88L31.54 5.88L29.14 8.79L26.72 5.88L25.73 5.88L28.63 9.38L25.73 12.88L26.72 12.88L29.14 9.98L31.54 12.88L32.53 12.88L29.63 9.38Z"></path></g><!----><!----></svg>