<svg data-v-423bf9ae="" xmlns="http://www.w3.org/2000/svg" viewBox="0 0 175.71426842829905 60" class="font"><!----><!----><!----><g data-v-423bf9ae="" id="0659adb7-11fe-437b-a946-622c46bad586" fill="white" transform="matrix(5.639097562403148,0,0,5.639097562403148,-7.725563916965413,-13.421053320700146)"><path d="M7.49 12.88L8.66 12.88L3.64 7.21L8.49 2.38L7.33 2.38L2.91 6.81L2.21 6.81L2.21 2.38L1.37 2.38L1.37 12.88L2.21 12.88L2.21 7.61L2.92 7.61ZM12.67 5.74C11.92 5.74 11.24 6.07 10.76 6.63L10.76 5.88L9.94 5.88L9.94 12.88L10.76 12.88L10.76 8.38C10.76 7.37 11.59 6.54 12.60 6.54C13.62 6.54 14.44 7.37 14.44 8.38L14.44 12.88L15.24 12.88L15.24 8.38C15.24 6.91 14.04 5.74 12.67 5.74ZM21 13.02C23.01 13.02 24.64 11.39 24.64 9.38C24.64 7.37 23.01 5.74 21 5.74C18.99 5.74 17.36 7.37 17.36 9.38C17.36 11.39 18.99 13.02 21 13.02ZM21 12.20C19.43 12.20 18.17 10.96 18.17 9.38C18.17 7.81 19.43 6.56 21 6.56C22.56 6.56 23.82 7.81 23.82 9.38C23.82 10.96 22.56 12.20 21 12.20ZM32.53 5.88L31.54 5.88L29.14 8.79L26.72 5.88L25.73 5.88L28.63 9.38L25.73 12.88L26.72 12.88L29.14 9.98L31.54 12.88L32.53 12.88L29.63 9.38Z"></path></g><!----><!----></svg>